<svg width="129" height="238" viewBox="0 0 129 238" fill="none" xmlns="http://www.w3.org/2000/svg">
<path d="M53.5711 6C65.0222 18.463 88.6798 28.744 104.384 39.7313C112.069 45.1085 122.443 59.5676 122.443 66.7164C122.443 74.6803 124.84 84.2636 119.689 91.359C115.918 96.5523 118.254 97.7999 108.822 99.6045C102.798 100.757 96.7248 100.448 90.456 100.448C74.0969 100.448 62.4212 97.9537 48.0613 93.3267C33.159 88.525 51.813 78.8453 61.8357 78.5224C72.4631 78.18 82.9175 78.3917 89.9969 83.2073C96.5322 87.6528 105.511 101.153 105.914 107.569C106.703 120.122 103.861 131.206 100.251 143.362C99.3154 146.513 79.3196 153.425 74.3858 154.231C65.8188 155.629 57.2015 157.137 48.2143 155.074C38.9475 152.946 28.6704 149.526 33.0624 142.612C35.99 138.003 40.2277 134.618 48.0613 134.085C59.3498 133.318 75.334 128.892 78.2121 138.583C81.8059 150.684 87.0195 163.018 78.9773 174.938C68.8916 189.887 48.8594 202.419 33.0624 215.134C26.8502 220.135 21.2574 225.899 12.2476 229.002C10.2827 229.678 12.2476 218.471 12.2476 214.385C12.2476 209.152 12.5326 203.876 12.2476 198.643C12.0372 194.779 10.428 190.949 9.64581 187.119C8.67301 182.354 7.91386 196.665 7.35006 201.454C6.39555 209.562 1.25547 228.454 20.2062 228.627C40.1085 228.809 58.4218 232 78.3651 232" stroke="black" stroke-width="11" stroke-linecap="round"/>
</svg>
